# xmcd
#
# Track frame offsets:
#	150
#	13003
#	28888
#	40958
#	56608
#	69058
#	84648
#	101480
#	117520
#	132125
#
# Disc length: 1946
#
# Revision: 3
# Processed by: cddbd v1.5.1PL0 Copyright (c) Steve Scherf et al.
# Submitted via: EasyCDDAExtractor 5.0.6
# Normalized: r2:DSETVAR1
#
DISCID=8007980a
DTITLE=Various Artist - Christmas In Branson
DYEAR=1900
DGENRE=Country
TTITLE0=Roy Clark - Jingle Bells
TTITLE1=Johnny Paycheck - Honky Tonk Christmas
TTITLE2=Faron Young - Winter Wonderland
TTITLE3=Connie Smith - What Child Is This
TTITLE4=Moe Brandy - Away In A Manger
TTITLE5=Johnny Paycheck - Christmas Is
TTITLE6=Faron Young - O Little Town Of Bethlehem
TTITLE7=Roy Clark - Silent Night
TTITLE8=Connie Smith - O Holy Night
TTITLE9=Moe Brandy - I'll Be Home For Christmas
EXTD=
EXTT0=
EXTT1=
EXTT2=
EXTT3=
EXTT4=
EXTT5=
EXTT6=
EXTT7=
EXTT8=
EXTT9=
PLAYORDER=
